<svg width="68" height="68" viewBox="0 0 68 68" fill="none" xmlns="http://www.w3.org/2000/svg">
<g filter="url(#filter0_d_113_226)">
<rect x="10" y="6" width="48" height="48" rx="24" fill="#F2F2F2" shape-rendering="crispEdges"/>
<path d="M42 39V37C42 35.9391 41.5786 34.9217 40.8284 34.1716C40.0783 33.4214 39.0609 33 38 33H30C28.9391 33 27.9217 33.4214 27.1716 34.1716C26.4214 34.9217 26 35.9391 26 37V39" stroke="#0A0937" stroke-width="2" stroke-linecap="round" stroke-linejoin="round"/>
<path d="M34 29C36.2091 29 38 27.2091 38 25C38 22.7909 36.2091 21 34 21C31.7909 21 30 22.7909 30 25C30 27.2091 31.7909 29 34 29Z" stroke="#0A0937" stroke-width="2" stroke-linecap="round" stroke-linejoin="round"/>
</g>
<defs>
<filter id="filter0_d_113_226" x="0" y="0" width="68" height="68" filterUnits="userSpaceOnUse" color-interpolation-filters="sRGB">
<feFlood flood-opacity="0" result="BackgroundImageFix"/>
<feColorMatrix in="SourceAlpha" type="matrix" values="0 0 0 0 0 0 0 0 0 0 0 0 0 0 0 0 0 0 127 0" result="hardAlpha"/>
<feOffset dy="4"/>
<feGaussianBlur stdDeviation="5"/>
<feComposite in2="hardAlpha" operator="out"/>
<feColorMatrix type="matrix" values="0 0 0 0 0 0 0 0 0 0 0 0 0 0 0 0 0 0 0.11 0"/>
<feBlend mode="normal" in2="BackgroundImageFix" result="effect1_dropShadow_113_226"/>
<feBlend mode="normal" in="SourceGraphic" in2="effect1_dropShadow_113_226" result="shape"/>
</filter>
</defs>
</svg>
