<svg width="162" height="231" viewBox="0 0 162 231" fill="none" xmlns="http://www.w3.org/2000/svg">
<g filter="url(#filter0_d_119_345)">
<rect x="10" y="6" width="142" height="211" rx="15" fill="#F5F5F5"/>
<rect x="16" y="12" width="130" height="199" rx="9" stroke="#F5F5F5" stroke-width="12"/>
</g>
<g filter="url(#filter1_d_119_345)">
<path d="M64.5181 84C64.5181 81.2386 66.7566 79 69.5181 79H126.714C129.476 79 131.714 81.2386 131.714 84V104H69.5181C66.7566 104 64.5181 101.761 64.5181 99V84Z" fill="#782FEF"/>
</g>
<g filter="url(#filter2_d_119_345)">
<path d="M26.4819 44C26.4819 41.2386 28.7205 39 31.4819 39H88.6784C91.4398 39 93.6784 41.2386 93.6784 44V59C93.6784 61.7614 91.4398 64 88.6784 64H26.4819V44Z" fill="#782FEF"/>
</g>
<g filter="url(#filter3_d_119_345)">
<path d="M26 124C26 121.239 28.2386 119 31 119H88.1964C90.9579 119 93.1964 121.239 93.1964 124V139C93.1964 141.761 90.9578 144 88.1964 144H26V124Z" fill="#782FEF"/>
</g>
<defs>
<filter id="filter0_d_119_345" x="0" y="0" width="162" height="231" filterUnits="userSpaceOnUse" color-interpolation-filters="sRGB">
<feFlood flood-opacity="0" result="BackgroundImageFix"/>
<feColorMatrix in="SourceAlpha" type="matrix" values="0 0 0 0 0 0 0 0 0 0 0 0 0 0 0 0 0 0 127 0" result="hardAlpha"/>
<feOffset dy="4"/>
<feGaussianBlur stdDeviation="5"/>
<feComposite in2="hardAlpha" operator="out"/>
<feColorMatrix type="matrix" values="0 0 0 0 0.408366 0 0 0 0 0.408366 0 0 0 0 0.408366 0 0 0 0.11 0"/>
<feBlend mode="normal" in2="BackgroundImageFix" result="effect1_dropShadow_119_345"/>
<feBlend mode="normal" in="SourceGraphic" in2="effect1_dropShadow_119_345" result="shape"/>
</filter>
<filter id="filter1_d_119_345" x="54.5181" y="73" width="87.1963" height="45" filterUnits="userSpaceOnUse" color-interpolation-filters="sRGB">
<feFlood flood-opacity="0" result="BackgroundImageFix"/>
<feColorMatrix in="SourceAlpha" type="matrix" values="0 0 0 0 0 0 0 0 0 0 0 0 0 0 0 0 0 0 127 0" result="hardAlpha"/>
<feOffset dy="4"/>
<feGaussianBlur stdDeviation="5"/>
<feComposite in2="hardAlpha" operator="out"/>
<feColorMatrix type="matrix" values="0 0 0 0 0.408366 0 0 0 0 0.408366 0 0 0 0 0.408366 0 0 0 0.11 0"/>
<feBlend mode="normal" in2="BackgroundImageFix" result="effect1_dropShadow_119_345"/>
<feBlend mode="normal" in="SourceGraphic" in2="effect1_dropShadow_119_345" result="shape"/>
</filter>
<filter id="filter2_d_119_345" x="16.4819" y="33" width="87.1963" height="45" filterUnits="userSpaceOnUse" color-interpolation-filters="sRGB">
<feFlood flood-opacity="0" result="BackgroundImageFix"/>
<feColorMatrix in="SourceAlpha" type="matrix" values="0 0 0 0 0 0 0 0 0 0 0 0 0 0 0 0 0 0 127 0" result="hardAlpha"/>
<feOffset dy="4"/>
<feGaussianBlur stdDeviation="5"/>
<feComposite in2="hardAlpha" operator="out"/>
<feColorMatrix type="matrix" values="0 0 0 0 0.408366 0 0 0 0 0.408366 0 0 0 0 0.408366 0 0 0 0.11 0"/>
<feBlend mode="normal" in2="BackgroundImageFix" result="effect1_dropShadow_119_345"/>
<feBlend mode="normal" in="SourceGraphic" in2="effect1_dropShadow_119_345" result="shape"/>
</filter>
<filter id="filter3_d_119_345" x="16" y="113" width="87.1963" height="45" filterUnits="userSpaceOnUse" color-interpolation-filters="sRGB">
<feFlood flood-opacity="0" result="BackgroundImageFix"/>
<feColorMatrix in="SourceAlpha" type="matrix" values="0 0 0 0 0 0 0 0 0 0 0 0 0 0 0 0 0 0 127 0" result="hardAlpha"/>
<feOffset dy="4"/>
<feGaussianBlur stdDeviation="5"/>
<feComposite in2="hardAlpha" operator="out"/>
<feColorMatrix type="matrix" values="0 0 0 0 0.408366 0 0 0 0 0.408366 0 0 0 0 0.408366 0 0 0 0.11 0"/>
<feBlend mode="normal" in2="BackgroundImageFix" result="effect1_dropShadow_119_345"/>
<feBlend mode="normal" in="SourceGraphic" in2="effect1_dropShadow_119_345" result="shape"/>
</filter>
</defs>
</svg>
