<svg width="81" height="27" viewBox="0 0 81 27" fill="none" xmlns="http://www.w3.org/2000/svg">
<path d="M14.89 5.35L11.775 7.415C10.83 5.63 9.605 4.72 8.135 4.72C6.595 4.72 5.58 5.875 5.58 7.38C5.58 9.165 7.225 10.39 9.29 11.37C12.23 12.665 16.115 14.415 16.08 18.825C16.08 21.03 15.345 22.85 13.91 24.215C12.475 25.58 10.655 26.28 8.415 26.28C4.215 26.28 1.205 23.515 0.33 19.455L3.48 17.46C4.355 20.925 6 22.64 8.415 22.64C10.62 22.64 12.16 21.1 12.16 18.965C12.16 14.17 1.73 15.22 1.73 7.66C1.73 5.805 2.36 4.3 3.585 3.075C4.81 1.85 6.35 1.22 8.135 1.22C11.11 1.22 13.35 2.585 14.89 5.35ZM27.773 11.3C25.428 11.3 23.888 12.875 23.468 15.15H32.043C31.728 12.945 30.258 11.3 27.773 11.3ZM35.893 16.62V18.195H23.398C23.398 20.96 25.008 23.06 27.773 23.06C29.733 23.06 31.518 21.94 32.393 20.085L35.508 21.31C33.723 24.775 31.658 26.28 27.773 26.28C21.963 26.28 19.548 21.38 19.548 17.18C19.548 12.98 21.963 8.08 27.773 8.08C33.408 8.08 35.893 12.665 35.893 16.62ZM39.8453 26V1.22H43.4853V26H39.8453ZM48.2535 26V1.22H51.8935V26H48.2535Z" fill="#0A0937"/>
<path d="M57.6504 5.175C56.7054 4.195 56.7054 2.585 57.6854 1.605C58.6654 0.59 60.2754 0.59 61.2554 1.605C62.2354 2.585 62.2354 4.195 61.2554 5.175C60.3104 6.12 58.6304 6.12 57.6504 5.175ZM57.6504 26V8.36H61.2904V26H57.6504ZM65.3108 26V1.22H68.9508V15.395L75.3208 8.36H79.9408L72.5558 16.48L80.3958 26H75.7758L68.9508 17.565V26H65.3108Z" fill="#782FEF"/>
</svg>
